
<svg width="370px" height="663px" viewBox="0 0 370 663" version="1.1" xmlns="http://www.w3.org/2000/svg" xmlns:xlink="http://www.w3.org/1999/xlink">
    <!-- Generator: Sketch 46 (44423) - http://www.bohemiancoding.com/sketch -->
    <desc>Created with Sketch.</desc>
    <defs></defs>
    <g id="luftdatenStory-1-Frame" stroke="none" stroke-width="1" fill="none" fill-rule="evenodd">
        <g id="2.-Folie-Copy" transform="translate(-241.000000, -139.000000)" stroke="#979797">
            <path d="M323.942922,301.495135 C323.942922,289.363959 324.313872,277.227109 323.942922,265.101605 C323.522388,251.355304 312.89663,259.021383 317.922973,240.836306 C318.773436,237.75937 332.971035,240.490699 328.646698,232.97018 C324.598885,225.930569 313.792458,224.619371 309.778595,217.560347 C306.850274,212.410422 310.688771,205.641503 309.778595,199.787583 C308.815692,193.594536 305.389646,187.982707 304.222399,181.824903 C302.906758,174.884251 303.898511,167.61042 302.371805,160.713121 C301.257458,155.678761 297.660732,151.444797 296.391606,146.447211 C296.125366,145.398806 297.047977,144.084856 298.039032,143.651445 C320.075037,134.014607 329.704824,147.541831 353.790918,151.667739 C365.508789,153.674991 378.19291,148.462401 389.451278,152.281659 C393.302573,153.588162 391.034225,160.293235 391.195871,164.356891 C391.616957,174.942688 390.414536,185.57408 391.195871,196.139397 C392.682004,216.235095 414.254128,240.337562 436.745201,233.380932 C439.087746,232.656369 441.225014,231.309184 443.20682,229.865247 C449.536073,225.253773 455.269414,219.857932 461.61117,215.263667 C463.349373,214.004431 465.543589,211.225486 467.361701,212.366318 C473.158816,216.003903 476.007832,223.071472 481.185943,227.546484 C481.539363,227.851916 490.683385,232.281857 508.618008,240.836306 L508.618008,290.978995 L523.634756,342.296524 L523.634756,386.136595 L560.165205,420.476365 L569.992341,460.880251 L589.867449,505.621327 L610.157726,589.653283 L596.783987,622.018792 L569.992341,661.106504 L508.618008,719.609988 L467.361701,760.336293 L401.098091,778.444724 L341.87027,800.731345 L291.771748,778.444724 L242.379896,749.131149 L242.379896,705.631162 L264.600267,661.106504 L279.427097,643.21449 L279.427097,612.028238 L298.039032,563.824476 L341.87027,512.250779 L335.788487,437.661708 L328.646698,386.136595 L317.922973,342.296524 L328.646698,301.495135 L323.942922,301.495135 Z" id="AlsterPath"></path>
        </g>
    </g>
</svg>
